# xmcd
#
# Track frame offsets:
#	150
#	35219
#	56217
#	121702
#	207257
#	269843
#	294489
#
# Disc length: 4245 seconds
#
# Revision: 0
# Processed by: cddbd v1.5.2PL0 Copyright (c) Steve Scherf et al.
# Submitted via: audiograbber 1.83.01
#
DISCID=72109307
DTITLE=Grateful Dead - 94-12-09 Oakland Coliseum Arena, Oakland CA
DYEAR=1900
DGENRE=
TTITLE0=Truckin'
TTITLE1=That Would Be Something
TTITLE2=He's Gone
TTITLE3=Drums
TTITLE4=Space
TTITLE5=Box Of Rain
TTITLE6=Johnny B Goode
EXTD=
EXTT0=
EXTT1=
EXTT2=
EXTT3=
EXTT4=
EXTT5=
EXTT6=
PLAYORDER=
